<svg width="1200" height="400" viewBox="0 0 1200 400" xmlns="http://www.w3.org/2000/svg">
  <!-- Hero image 1: Family protection theme -->
  <defs>
    <linearGradient id="heroGradient1" x1="0%" y1="0%" x2="100%" y2="100%">
      <stop offset="0%" style="stop-color:#0066cc;stop-opacity:1" />
      <stop offset="100%" style="stop-color:#004d99;stop-opacity:1" />
    </linearGradient>
  </defs>

  <rect width="1200" height="400" fill="url(#heroGradient1)"/>

  <!-- Abstract family silhouettes -->
  <g opacity="0.3" fill="white">
    <ellipse cx="500" cy="350" rx="150" ry="30"/>
    <circle cx="450" cy="180" r="30"/>
    <rect x="430" y="210" width="40" height="80" rx="5"/>
    <rect x="425" y="280" width="20" height="60" rx="3"/>
    <rect x="455" y="280" width="20" height="60" rx="3"/>

    <circle cx="550" cy="160" r="35"/>
    <rect x="527" y="195" width="46" height="90" rx="5"/>
    <rect x="520" y="275" width="22" height="65" rx="3"/>
    <rect x="558" y="275" width="22" height="65" rx="3"/>
  </g>

  <!-- Protective shield overlay -->
  <path d="M800 100 L900 130 L900 200 Q900 260 800 300 Q700 260 700 200 L700 130 Z"
        fill="rgba(255,255,255,0.2)"
        stroke="rgba(255,255,255,0.4)"
        stroke-width="2"/>
  <path d="M760 200 L790 240 L850 170"
        fill="none"
        stroke="rgba(255,255,255,0.6)"
        stroke-width="6"
        stroke-linecap="round"
        stroke-linejoin="round"/>
</svg>
