<svg width="60" height="60" viewBox="0 0 60 60" xmlns="http://www.w3.org/2000/svg">
  <!-- Car icon for auto insurance -->
  <g fill="white">
    <!-- Car body -->
    <path d="M15 35 L12 35 Q10 35 10 37 L10 42 Q10 44 12 44 L15 44 L15 35 Z"/>
    <path d="M45 35 L48 35 Q50 35 50 37 L50 42 Q50 44 48 44 L45 44 L45 35 Z"/>
    <rect x="15" y="25" width="30" height="15" rx="2"/>
    <path d="M18 25 L20 18 Q20 16 22 16 L38 16 Q40 16 40 18 L42 25 Z"/>

    <!-- Windows -->
    <rect x="20" y="19" width="8" height="5" fill="#004d99" opacity="0.3"/>
    <rect x="32" y="19" width="8" height="5" fill="#004d99" opacity="0.3"/>

    <!-- Wheels -->
    <circle cx="20" cy="42" r="4" fill="#333"/>
    <circle cx="40" cy="42" r="4" fill="#333"/>
    <circle cx="20" cy="42" r="2" fill="#666"/>
    <circle cx="40" cy="42" r="2" fill="#666"/>
  </g>
</svg>
